<svg width="248" height="248" viewBox="0 0 248 248" fill="none" xmlns="http://www.w3.org/2000/svg">
<path d="M131.565 6.28832L223.224 59.2081C227.711 61.7983 230.474 66.5851 230.474 71.7655V177.605C230.474 182.785 227.711 187.572 223.224 190.162L131.565 243.082C127.078 245.672 121.551 245.672 117.065 243.082L25.405 190.162C20.9187 187.572 18.155 182.785 18.155 177.605V71.7655C18.155 66.5851 20.9187 61.7983 25.405 59.2081L117.065 6.28833C121.551 3.69815 127.078 3.69815 131.565 6.28832Z" fill="url(#paint0_linear_1806_47607)"/>
<path d="M131.565 6.28832L223.224 59.2081C227.711 61.7983 230.474 66.5851 230.474 71.7655V177.605C230.474 182.785 227.711 187.572 223.224 190.162L131.565 243.082C127.078 245.672 121.551 245.672 117.065 243.082L25.405 190.162C20.9187 187.572 18.155 182.785 18.155 177.605V71.7655C18.155 66.5851 20.9187 61.7983 25.405 59.2081L117.065 6.28833C121.551 3.69815 127.078 3.69815 131.565 6.28832Z" fill="url(#paint1_linear_1806_47607)"/>
<path d="M131.565 6.28832L223.224 59.2081C227.711 61.7983 230.474 66.5851 230.474 71.7655V177.605C230.474 182.785 227.711 187.572 223.224 190.162L131.565 243.082C127.078 245.672 121.551 245.672 117.065 243.082L25.405 190.162C20.9187 187.572 18.155 182.785 18.155 177.605V71.7655C18.155 66.5851 20.9187 61.7983 25.405 59.2081L117.065 6.28833C121.551 3.69815 127.078 3.69815 131.565 6.28832Z" stroke="#1B2240" stroke-width="3"/>
<path fill-rule="evenodd" clip-rule="evenodd" d="M120.218 114.248C120.264 114.235 120.309 114.222 120.355 114.21C123.851 113.246 127.294 113.197 130.637 113.159C136.016 113.097 141.155 113.026 146.218 109.463C146.692 109.123 146.929 108.544 146.822 107.977L146.816 107.948L143.278 89.8705L143.266 89.8102C143.064 88.7903 141.837 88.341 141.004 88.9816C137.393 91.7364 132.363 92.1688 126.4 92.6683C123.041 92.881 119.698 93.2806 116.384 93.865L116.225 93.0229C115.81 90.8589 113.705 89.4348 111.517 89.8383C109.306 90.246 107.857 92.3625 108.294 94.5459L114.283 128.204C102.403 131.783 93.75 142.809 93.75 155.855C93.75 156.615 94.3656 157.23 95.125 157.23C95.8844 157.23 96.5 156.615 96.5 155.855C96.5 141.427 108.197 129.73 122.625 129.73C137.053 129.73 148.75 141.427 148.75 155.855C148.75 156.615 149.366 157.23 150.125 157.23C150.884 157.23 151.5 156.615 151.5 155.855C151.5 139.908 138.572 126.98 122.625 126.98L122.614 126.98L120.218 114.248ZM113.524 93.5408L113.683 94.3836L113.67 94.3862L114.004 96.0913L119.815 126.975L116.946 127.474L110.996 94.0351L110.991 94.0062C110.86 93.353 111.289 92.6767 112.016 92.5427C112.741 92.409 113.396 92.8835 113.524 93.5374L113.524 93.5408ZM143.959 107.666L140.951 92.2969C139.14 93.3133 137.169 93.9383 135.148 94.3621C132.506 94.9164 129.591 95.1606 126.662 95.406L126.601 95.411L126.573 95.4128C123.33 95.6182 120.101 96.0034 116.9 96.5665L119.825 111.505C123.642 110.488 127.311 110.447 130.546 110.41L130.605 110.41C135.758 110.349 139.896 110.24 143.959 107.666Z" fill="#1B2240"/>
<path fill-rule="evenodd" clip-rule="evenodd" d="M118.5 132.633C119.959 132.633 121.358 133.208 122.389 134.232C123.421 135.256 124 136.644 124 138.092C124 139.54 123.421 140.928 122.389 141.952C121.358 142.976 119.959 143.551 118.5 143.551C117.041 143.551 115.642 142.976 114.611 141.952C113.579 140.928 113 139.54 113 138.092C113 136.644 113.579 135.256 114.611 134.232C115.642 133.208 117.041 132.633 118.5 132.633ZM118.5 135.383C119.236 135.383 119.938 135.673 120.452 136.184C120.965 136.693 121.25 137.38 121.25 138.092C121.25 138.804 120.965 139.491 120.452 140C119.938 140.511 119.236 140.801 118.5 140.801C117.764 140.801 117.062 140.511 116.548 140C116.035 139.491 115.75 138.804 115.75 138.092C115.75 137.38 116.035 136.693 116.548 136.184C117.062 135.673 117.764 135.383 118.5 135.383Z" fill="#1B2240"/>
<path fill-rule="evenodd" clip-rule="evenodd" d="M106.812 143.486C107.907 143.486 108.956 143.917 109.729 144.685C110.503 145.453 110.938 146.494 110.938 147.58C110.938 148.666 110.503 149.707 109.729 150.475C108.956 151.243 107.907 151.674 106.812 151.674C105.718 151.674 104.669 151.243 103.896 150.475C103.122 149.707 102.688 148.666 102.688 147.58C102.688 146.494 103.122 145.453 103.896 144.685C104.669 143.917 105.718 143.486 106.812 143.486ZM106.812 146.236C107.184 146.236 107.536 146.382 107.792 146.637C108.048 146.89 108.188 147.23 108.188 147.58C108.188 147.93 108.048 148.27 107.792 148.523C107.536 148.778 107.184 148.924 106.812 148.924C106.441 148.924 106.089 148.778 105.833 148.523C105.577 148.27 105.438 147.93 105.438 147.58C105.438 147.23 105.577 146.89 105.833 146.637C106.089 146.382 106.441 146.236 106.812 146.236Z" fill="#1B2240"/>
<path fill-rule="evenodd" clip-rule="evenodd" d="M126.586 145.859C125.884 145.603 125.138 145.492 124.392 145.532C122.986 145.607 121.663 146.214 120.695 147.228C119.727 148.242 119.188 149.586 119.188 150.983C119.188 152.38 119.727 153.724 120.695 154.738C121.663 155.752 122.986 156.359 124.392 156.434C125.138 156.474 125.884 156.363 126.586 156.107C127.287 155.851 127.928 155.456 128.471 154.946C129.013 154.435 129.445 153.821 129.74 153.14C130.035 152.458 130.188 151.725 130.188 150.983C130.188 150.241 130.035 149.508 129.74 148.826C129.445 148.145 129.013 147.531 128.471 147.02C127.928 146.51 127.287 146.115 126.586 145.859ZM124.539 148.278C124.915 148.258 125.29 148.314 125.643 148.443C125.995 148.571 126.316 148.769 126.587 149.024C126.857 149.278 127.071 149.583 127.217 149.92C127.363 150.256 127.438 150.618 127.438 150.983C127.438 151.348 127.363 151.71 127.217 152.046C127.071 152.383 126.857 152.688 126.587 152.942C126.316 153.197 125.995 153.395 125.643 153.523C125.29 153.652 124.915 153.708 124.539 153.688C123.83 153.65 123.167 153.344 122.684 152.839C122.203 152.334 121.938 151.67 121.938 150.983C121.938 150.296 122.203 149.632 122.684 149.127C123.167 148.622 123.83 148.316 124.539 148.278Z" fill="#1B2240"/>
<path fill-rule="evenodd" clip-rule="evenodd" d="M136.375 138.057C136.917 138.057 137.453 138.163 137.954 138.369C138.454 138.574 138.909 138.876 139.292 139.256C139.675 139.636 139.979 140.088 140.186 140.584C140.393 141.081 140.5 141.614 140.5 142.151C140.5 142.689 140.393 143.221 140.186 143.718C139.979 144.215 139.675 144.666 139.292 145.046C138.909 145.427 138.454 145.728 137.954 145.934C137.453 146.14 136.917 146.246 136.375 146.246C135.281 146.246 134.232 145.814 133.458 145.046C132.685 144.279 132.25 143.237 132.25 142.151C132.25 141.065 132.685 140.024 133.458 139.256C134.232 138.488 135.281 138.057 136.375 138.057ZM136.375 140.807C136.558 140.807 136.74 140.843 136.908 140.912C137.076 140.981 137.228 141.082 137.355 141.208C137.481 141.334 137.581 141.482 137.648 141.644C137.716 141.805 137.75 141.978 137.75 142.151C137.75 142.325 137.716 142.497 137.648 142.659C137.581 142.821 137.481 142.969 137.355 143.095C137.228 143.22 137.076 143.321 136.908 143.391C136.74 143.46 136.558 143.496 136.375 143.496C136.004 143.496 135.652 143.349 135.395 143.095C135.14 142.841 135 142.501 135 142.151C135 141.801 135.14 141.462 135.395 141.208C135.652 140.954 136.004 140.807 136.375 140.807Z" fill="#1B2240"/>
<path fill-rule="evenodd" clip-rule="evenodd" d="M152.187 130.998C151.757 130.998 151.371 130.73 151.221 130.327C150.863 129.365 150.59 128.575 150.37 127.941C149.922 126.643 149.675 125.928 149.341 125.594C149.007 125.261 148.292 125.014 146.996 124.565L146.994 124.565C146.36 124.346 145.57 124.073 144.608 123.714C144.205 123.564 143.938 123.179 143.938 122.748C143.938 122.317 144.205 121.932 144.608 121.782C145.57 121.423 146.36 121.15 146.994 120.931L146.995 120.93C148.292 120.482 149.007 120.235 149.341 119.901C149.675 119.567 149.922 118.852 150.37 117.555C150.59 116.92 150.863 116.13 151.221 115.169C151.371 114.765 151.757 114.498 152.187 114.498C152.618 114.498 153.003 114.765 153.154 115.169C153.512 116.13 153.785 116.92 154.005 117.555C154.453 118.852 154.7 119.567 155.034 119.901C155.368 120.235 156.083 120.482 157.381 120.931C158.015 121.15 158.805 121.423 159.766 121.781C160.17 121.932 160.437 122.317 160.437 122.748C160.437 123.178 160.17 123.564 159.766 123.714C158.805 124.072 158.015 124.346 157.381 124.565C156.083 125.013 155.368 125.26 155.034 125.594C154.7 125.928 154.453 126.643 154.005 127.94C153.785 128.575 153.512 129.365 153.154 130.327C153.003 130.73 152.618 130.998 152.187 130.998ZM148.048 122.748C150.86 123.734 151.201 124.075 152.187 126.887C153.174 124.075 153.514 123.734 156.327 122.748C153.514 121.761 153.174 121.42 152.187 118.608C151.201 121.42 150.86 121.762 148.048 122.748Z" fill="#1B2240"/>
<path fill-rule="evenodd" clip-rule="evenodd" d="M94.1586 115.202C94.3089 115.605 94.6942 115.873 95.1249 115.873C95.5554 115.873 95.9406 115.605 96.0912 115.202C96.4497 114.24 96.7228 113.45 96.9422 112.815C97.3908 111.518 97.6379 110.803 97.9719 110.469C98.3056 110.135 99.0203 109.888 100.318 109.44C100.952 109.221 101.742 108.947 102.704 108.589C103.107 108.439 103.375 108.053 103.375 107.623C103.375 107.192 103.107 106.807 102.704 106.656C101.742 106.298 100.952 106.025 100.318 105.806C99.0203 105.357 98.3056 105.11 97.9717 104.776C97.6379 104.442 97.3906 103.727 96.942 102.43C96.7228 101.795 96.4497 101.005 96.0912 100.044C95.9408 99.6403 95.5556 99.3727 95.1249 99.3727C94.6942 99.3727 94.3089 99.6403 94.1586 100.044C93.8001 101.005 93.527 101.795 93.3078 102.43C92.8592 103.727 92.6121 104.442 92.2781 104.776C91.9443 105.11 91.23 105.357 89.9329 105.805L89.9317 105.806C89.2973 106.025 88.5077 106.298 87.546 106.657C87.1425 106.807 86.875 107.192 86.875 107.623C86.875 108.054 87.1425 108.439 87.546 108.589C88.5077 108.948 89.2975 109.221 89.9319 109.44L89.9331 109.44C91.2299 109.889 91.9445 110.136 92.2781 110.469C92.6121 110.803 92.8592 111.518 93.3078 112.816C93.527 113.45 93.8001 114.24 94.1586 115.202ZM95.1247 111.762C94.1382 108.95 93.7974 108.609 90.9853 107.623C93.7972 106.637 94.1384 106.295 95.1247 103.483C96.1112 106.295 96.4517 106.636 99.2641 107.623C96.452 108.609 96.1112 108.95 95.1247 111.762Z" fill="#1B2240"/>
<path d="M48.3144 90.1619L49.6576 91.6407L51.7517 88.2514L49.8282 87.7118C49.0026 87.465 48.1593 87.2167 47.2981 86.9667C46.4233 86.7083 45.5528 86.4431 44.6864 86.1711L44.6359 86.2528C45.2668 86.9059 45.8935 87.5658 46.516 88.2326C47.1333 88.8773 47.7327 89.5204 48.3144 90.1619ZM52.6694 99.0029L41.991 86.4241L43.7067 83.6474L59.7339 87.5693L58.1822 90.0806L53.9376 88.8686L51.1875 93.3195L54.158 96.5936L52.6694 99.0029Z" fill="#1B2240"/>
<path d="M61.8837 85.3167L50.2761 74.7513L53.7494 70.9354C54.331 70.2964 54.9232 69.7646 55.5262 69.3398C56.14 68.9032 56.7665 68.6189 57.4059 68.4869C58.0453 68.3549 58.6981 68.3866 59.3642 68.5818C60.0184 68.7662 60.6828 69.1654 61.3572 69.7793C61.9962 70.3608 62.45 70.9794 62.7187 71.6351C62.9873 72.2907 63.0983 72.965 63.0516 73.6581C63.0038 74.3286 62.8092 75.006 62.4676 75.6903C62.1249 76.352 61.6682 76.9964 61.0973 77.6235L59.498 79.3807L63.7577 83.2579L61.8837 85.3167ZM57.8474 77.8783L59.3013 76.2809C60.8522 74.577 60.9236 73.0842 59.5156 71.8026C58.7819 71.1349 58.0852 70.8901 57.4253 71.0684C56.7536 71.2359 56.0301 71.7456 55.2546 72.5975L53.8007 74.1949L57.8474 77.8783Z" fill="#1B2240"/>
<path d="M76.5908 71.9264C75.8633 72.4764 75.0871 72.8426 74.2622 73.025C73.4404 73.185 72.6051 73.1547 71.7563 72.934C70.9105 72.6909 70.0576 72.2526 69.1975 71.6192C68.3374 70.9857 67.5118 70.1457 66.7205 69.0992C65.9388 68.0654 65.3701 67.0613 65.0143 66.0866C64.6489 65.0993 64.4741 64.1783 64.4899 63.3239C64.5089 62.447 64.7122 61.6414 65.0997 60.9071C65.4904 60.1503 66.0494 59.497 66.7769 58.9469C67.5044 58.3969 68.279 58.0418 69.1008 57.8818C69.9257 57.6994 70.7562 57.7234 71.5923 57.9537C72.4315 58.1617 73.2763 58.576 74.1267 59.1967C74.9675 59.8046 75.7787 60.6254 76.5603 61.6592C77.3516 62.7057 77.9348 63.7291 78.3099 64.7292C78.685 65.7293 78.8679 66.6742 78.8586 67.5639C78.8524 68.4311 78.6539 69.2431 78.2633 69.9998C77.8757 70.7341 77.3182 71.3763 76.5908 71.9264ZM75.1288 69.9928C75.9329 69.3849 76.2718 68.5068 76.1458 67.3585C76.0228 66.1877 75.4016 64.8621 74.2822 63.3817C73.1918 61.9395 72.1098 61.0125 71.0362 60.6007C69.9753 60.1793 69.0429 60.2725 68.2388 60.8804C67.4348 61.4884 67.0846 62.3649 67.1883 63.5101C67.3047 64.6457 67.9081 65.9346 68.9986 67.3767C70.1179 68.8572 71.2177 69.8209 72.2979 70.2679C73.3811 70.6925 74.3248 70.6008 75.1288 69.9928Z" fill="#1B2240"/>
<path d="M85.283 65.9783L78.2807 51.9308L80.7508 50.6995L86.7038 62.642L93.298 59.355L94.3473 61.46L85.283 65.9783Z" fill="#1B2240"/>
<path d="M98.916 60.061L94.6167 44.9653L97.2711 44.2093L100.926 57.0429L108.012 55.0247L108.657 57.2868L98.916 60.061Z" fill="#1B2240"/>
<path d="M117.733 56.6394C116.825 56.7237 115.972 56.626 115.175 56.3464C114.392 56.0494 113.698 55.5835 113.093 54.9487C112.502 54.2965 112.008 53.4746 111.611 52.4831C111.214 51.4915 110.955 50.3425 110.833 49.0361C110.714 47.7457 110.759 46.5925 110.971 45.5767C111.18 44.5449 111.517 43.6701 111.98 42.9522C112.459 42.2169 113.056 41.6393 113.772 41.2193C114.503 40.782 115.322 40.5212 116.23 40.437C117.138 40.3527 117.984 40.4591 118.767 40.7561C119.564 41.0357 120.257 41.4936 120.846 42.1299C121.45 42.7488 121.95 43.546 122.346 44.5217C122.74 45.4813 122.997 46.6064 123.117 47.8969C123.238 49.2033 123.194 50.3803 122.986 51.428C122.778 52.4757 122.436 53.3752 121.959 54.1264C121.497 54.8602 120.9 55.4458 120.17 55.8832C119.453 56.3031 118.641 56.5552 117.733 56.6394ZM117.509 54.2258C118.513 54.1327 119.264 53.5649 119.762 52.5225C120.274 51.4627 120.444 50.0087 120.273 48.1606C120.106 46.3604 119.675 45.0024 118.979 44.0867C118.3 43.1696 117.458 42.7575 116.454 42.8506C115.451 42.9437 114.691 43.5042 114.176 44.5322C113.676 45.5587 113.51 46.9721 113.677 48.7724C113.849 50.6205 114.276 52.019 114.958 52.968C115.655 53.8996 116.506 54.3189 117.509 54.2258Z" fill="#1B2240"/>
<path d="M147.959 60.0396C147.005 59.7679 146.16 59.3444 145.426 58.7692C144.707 58.1984 144.141 57.4967 143.73 56.6641C143.318 55.8315 143.073 54.8801 142.995 53.8098C142.933 52.7439 143.079 51.5878 143.434 50.3414C143.789 49.0949 144.274 48.0352 144.889 47.1622C145.519 46.2935 146.23 45.6061 147.023 45.0999C147.832 44.5982 148.702 44.2886 149.633 44.1714C150.581 44.0585 151.547 44.1423 152.531 44.4228C153.532 44.7076 154.321 45.1487 154.899 45.746C155.498 46.3323 155.952 46.9276 156.262 47.5317L154.312 48.7729C154.059 48.3181 153.75 47.914 153.385 47.5605C153.035 47.2113 152.529 46.9425 151.867 46.7541C151.267 46.5832 150.676 46.5562 150.094 46.6732C149.531 46.7791 148.997 47.018 148.492 47.3899C148.007 47.7507 147.568 48.2412 147.175 48.8613C146.782 49.4814 146.465 50.2146 146.224 51.061C145.733 52.7844 145.694 54.2372 146.106 55.4192C146.537 56.5903 147.43 57.3686 148.784 57.7543C149.184 57.8683 149.585 57.924 149.985 57.9214C150.389 57.9035 150.729 57.8175 151.006 57.6634L151.933 54.4089L149.325 53.666L149.949 51.4732L154.981 52.9063L153.088 59.554C152.455 59.9061 151.681 60.143 150.765 60.2647C149.864 60.3907 148.928 60.3157 147.959 60.0396Z" fill="#1B2240"/>
<path d="M156.244 62.7523L163.247 48.7048L167.929 51.0389C168.659 51.403 169.304 51.8136 169.863 52.2709C170.421 52.7282 170.848 53.2357 171.142 53.7934C171.457 54.344 171.612 54.9485 171.605 55.6068C171.613 56.2722 171.421 56.9987 171.029 57.7863C170.493 58.8603 169.804 59.5981 168.96 59.9998C168.13 60.4087 167.222 60.5458 166.234 60.411L166.662 67.9452L163.848 66.5426L163.582 59.5449L161.477 58.4956L158.736 63.9943L156.244 62.7523ZM162.462 56.5195L164.395 57.4831C165.369 57.9685 166.206 58.1356 166.907 57.9845C167.623 57.8405 168.18 57.3676 168.58 56.5657C168.987 55.7495 169.011 55.0554 168.652 54.4834C168.308 53.9185 167.649 53.3934 166.676 52.908L164.742 51.9444L162.462 56.5195Z" fill="#1B2240"/>
<path d="M177.246 65.5079L175.647 66.7065L178.825 69.1093L179.543 67.2448C179.866 66.4461 180.192 65.6298 180.522 64.7958C180.861 63.9492 181.207 63.1073 181.559 62.2703L181.483 62.2124C180.773 62.7792 180.057 63.3412 179.335 63.8984C178.635 64.4525 177.939 64.989 177.246 65.5079ZM168.035 69.0144L181.56 59.563L184.164 61.5316L178.756 77.1202L176.401 75.3399L178.006 71.2277L173.832 68.0722L170.294 70.7224L168.035 69.0144Z" fill="#1B2240"/>
<path d="M180.796 79.4719L192.404 68.9065L195.877 72.7225C196.459 73.3614 196.932 74.001 197.299 74.6412C197.676 75.2932 197.9 75.9436 197.972 76.5926C198.043 77.2415 197.95 77.8884 197.694 78.5333C197.449 79.1673 196.989 79.7913 196.314 80.4052C195.675 80.9868 195.017 81.3806 194.339 81.5866C193.661 81.7925 192.979 81.8398 192.294 81.7283C191.631 81.6178 190.974 81.3605 190.325 80.9562C189.699 80.5529 189.1 80.0378 188.529 79.4107L186.93 77.6535L182.67 81.5307L180.796 79.4719ZM188.58 76.1511L190.034 77.7485C191.585 79.4524 193.065 79.6635 194.473 78.3819C195.206 77.7141 195.515 77.0434 195.4 76.3697C195.296 75.6853 194.856 74.9171 194.081 74.0652L192.627 72.4678L188.58 76.1511Z" fill="#1B2240"/>
<path d="M190.117 90.564L203.469 82.3137L204.933 84.6821L199.563 87.9999L202.389 92.5733L207.759 89.2555L209.222 91.6239L195.869 99.8742L194.406 97.5058L200.327 93.8474L197.501 89.274L191.58 92.9324L190.117 90.564Z" fill="#1B2240"/>
<path d="M38.2156 150.887L51.5225 144.844L53.5092 149.219C53.8419 149.951 54.079 150.654 54.2205 151.326C54.3682 152.011 54.381 152.652 54.2587 153.247C54.1364 153.843 53.8693 154.389 53.4573 154.887C53.0589 155.379 52.4731 155.801 51.6999 156.152C50.9674 156.484 50.2714 156.645 49.6118 156.634C48.9521 156.622 48.3345 156.469 47.7588 156.174C47.2028 155.887 46.695 155.471 46.2352 154.927C45.7953 154.391 45.412 153.763 45.0855 153.044L44.1707 151.03L39.2875 153.248L38.2156 150.887ZM46.063 150.171L46.8946 152.002C47.7817 153.955 49.0323 154.565 50.6465 153.832C51.4876 153.45 51.9532 152.944 52.0434 152.314C52.1472 151.678 51.9773 150.872 51.5338 149.895L50.7021 148.064L46.063 150.171Z" fill="#1B2240"/>
<path d="M46.9236 167.816L58.695 159.154L61.5823 163.078C62.0327 163.69 62.3921 164.304 62.6606 164.921C62.9291 165.537 63.0666 166.139 63.0732 166.726C63.1006 167.316 62.9718 167.882 62.6867 168.425C62.4105 168.98 61.9424 169.5 61.2825 169.986C60.3825 170.648 59.4976 170.966 58.6278 170.94C57.7668 170.926 56.9558 170.654 56.1948 170.122L53.3472 176.546L51.6122 174.188L54.3657 168.278L53.0678 166.514L48.46 169.904L46.9236 167.816ZM54.7237 165.295L55.9157 166.915C56.5161 167.731 57.1388 168.225 57.7839 168.398C58.4377 168.583 59.1006 168.428 59.7726 167.934C60.4565 167.43 60.7716 166.866 60.7177 166.239C60.6727 165.625 60.3499 164.91 59.7495 164.094L58.5575 162.474L54.7237 165.295Z" fill="#1B2240"/>
<path d="M62.4179 186.066C61.7841 185.501 61.3095 184.858 60.994 184.137C60.6995 183.416 60.5765 182.647 60.6249 181.832C60.6943 181.015 60.9407 180.157 61.3641 179.257C61.7875 178.357 62.4058 177.451 63.2189 176.54C64.0221 175.639 64.8368 174.938 65.6628 174.437C66.4988 173.925 67.3085 173.6 68.0919 173.46C68.8963 173.319 69.6689 173.359 70.4096 173.581C71.1713 173.801 71.8691 174.194 72.5028 174.759C73.1366 175.324 73.6007 175.968 73.8951 176.689C74.2107 177.41 74.3387 178.173 74.2792 178.978C74.2407 179.782 74.0147 180.629 73.6012 181.518C73.1977 182.395 72.5943 183.285 71.791 184.185C70.9779 185.097 70.1484 185.814 69.3025 186.337C68.4566 186.861 67.6265 187.198 66.8121 187.35C66.0188 187.501 65.2413 187.466 64.4796 187.246C63.7388 187.025 63.0516 186.631 62.4179 186.066ZM63.9202 184.382C64.6207 185.006 65.484 185.158 66.5102 184.835C67.5574 184.511 68.6561 183.705 69.8064 182.415C70.927 181.159 71.5785 180.003 71.7609 178.948C71.9544 177.903 71.7009 177.068 71.0005 176.443C70.3 175.819 69.4361 175.657 68.4087 175.958C67.3925 176.27 66.3241 177.053 65.2035 178.31C64.0532 179.599 63.3714 180.778 63.158 181.845C62.9657 182.911 63.2198 183.757 63.9202 184.382Z" fill="#1B2240"/>
<path d="M74.5475 195.065L81.8123 182.384L89.9175 187.027L88.8289 188.927L82.9729 185.572L80.9179 189.16L85.9013 192.014L84.8127 193.915L79.8293 191.06L76.7968 196.354L74.5475 195.065Z" fill="#1B2240"/>
<path d="M91.3109 203.497L95.799 189.588L104.71 192.464L104.037 194.548L97.5935 192.469L96.4474 196.02L101.913 197.784L101.241 199.868L95.7749 198.104L94.4504 202.209L101.107 204.357L100.434 206.441L91.3109 203.497Z" fill="#1B2240"/>
<path d="M114.19 209.122C113.168 209.016 112.209 208.728 111.314 208.26C110.419 207.793 109.645 207.18 108.99 206.422L110.684 204.824C111.182 205.371 111.762 205.836 112.426 206.22C113.092 206.589 113.81 206.813 114.58 206.894C115.425 206.982 116.086 206.886 116.565 206.607C117.043 206.327 117.31 205.928 117.364 205.41C117.398 205.084 117.366 204.811 117.27 204.591C117.174 204.356 117.024 204.146 116.819 203.96C116.628 203.775 116.384 203.6 116.087 203.434C115.805 203.27 115.494 203.095 115.153 202.909L113.266 201.836C112.896 201.648 112.538 201.423 112.19 201.162C111.843 200.901 111.538 200.6 111.274 200.257C111.01 199.915 110.811 199.528 110.676 199.094C110.542 198.661 110.502 198.177 110.558 197.644C110.618 197.066 110.8 196.546 111.103 196.083C111.407 195.605 111.801 195.205 112.284 194.881C112.768 194.557 113.324 194.323 113.953 194.179C114.597 194.036 115.289 194.004 116.03 194.081C116.919 194.174 117.746 194.432 118.511 194.857C119.292 195.268 119.956 195.787 120.505 196.413L119 197.919C118.551 197.482 118.064 197.124 117.539 196.845C117.029 196.567 116.403 196.389 115.663 196.312C114.966 196.239 114.388 196.329 113.927 196.58C113.481 196.833 113.23 197.234 113.172 197.782C113.143 198.064 113.184 198.315 113.296 198.536C113.409 198.743 113.568 198.939 113.774 199.125C113.995 199.298 114.248 199.46 114.532 199.609C114.831 199.76 115.136 199.919 115.448 200.087L117.274 201.109C117.714 201.334 118.115 201.586 118.476 201.863C118.836 202.141 119.141 202.45 119.39 202.79C119.639 203.131 119.816 203.516 119.921 203.946C120.042 204.364 120.075 204.839 120.019 205.372C119.957 205.965 119.773 206.507 119.467 207C119.176 207.494 118.78 207.917 118.279 208.269C117.779 208.606 117.183 208.858 116.492 209.026C115.802 209.178 115.035 209.211 114.19 209.122Z" fill="#1B2240"/>
<path d="M133.343 209.171C132.32 209.278 131.323 209.195 130.351 208.922C129.379 208.649 128.494 208.21 127.697 207.604L129.025 205.69C129.624 206.122 130.288 206.457 131.017 206.695C131.745 206.919 132.494 206.991 133.264 206.91C134.109 206.822 134.736 206.592 135.147 206.219C135.557 205.847 135.735 205.401 135.681 204.883C135.647 204.557 135.56 204.296 135.42 204.101C135.278 203.891 135.088 203.716 134.848 203.577C134.624 203.435 134.349 203.314 134.024 203.213C133.714 203.111 133.373 203.004 133.002 202.893L130.933 202.233C130.533 202.125 130.135 201.979 129.742 201.796C129.348 201.612 128.987 201.38 128.658 201.1C128.329 200.82 128.054 200.482 127.833 200.085C127.612 199.689 127.473 199.224 127.418 198.691C127.357 198.113 127.428 197.566 127.628 197.051C127.828 196.521 128.13 196.047 128.536 195.63C128.942 195.214 129.438 194.87 130.024 194.599C130.624 194.326 131.295 194.151 132.036 194.074C132.925 193.981 133.787 194.063 134.623 194.321C135.472 194.562 136.23 194.932 136.896 195.431L135.734 197.215C135.205 196.881 134.655 196.632 134.083 196.467C133.527 196.3 132.878 196.256 132.137 196.333C131.441 196.406 130.893 196.613 130.494 196.954C130.11 197.293 129.947 197.737 130.004 198.286C130.034 198.567 130.126 198.805 130.281 198.998C130.434 199.177 130.631 199.336 130.87 199.476C131.123 199.599 131.403 199.705 131.712 199.792C132.035 199.879 132.367 199.971 132.707 200.071L134.704 200.693C135.182 200.823 135.626 200.986 136.036 201.183C136.446 201.38 136.808 201.619 137.122 201.901C137.436 202.183 137.689 202.524 137.881 202.923C138.085 203.306 138.216 203.764 138.271 204.298C138.333 204.89 138.265 205.459 138.068 206.004C137.885 206.548 137.584 207.043 137.167 207.491C136.748 207.924 136.217 208.294 135.575 208.601C134.932 208.893 134.187 209.083 133.343 209.171Z" fill="#1B2240"/>
<path d="M147.374 206.503L146.702 204.419L150.062 203.334L146.919 193.594L143.558 194.678L142.886 192.594L152.073 189.63L152.746 191.714L149.386 192.798L152.529 202.538L155.889 201.454L156.561 203.538L147.374 206.503Z" fill="#1B2240"/>
<path d="M169.591 197.586C168.854 198.008 168.094 198.255 167.311 198.326C166.533 198.376 165.765 198.25 165.007 197.946C164.255 197.621 163.519 197.116 162.799 196.429C162.08 195.742 161.416 194.869 160.809 193.809C160.209 192.762 159.802 191.767 159.589 190.825C159.368 189.87 159.315 188.999 159.431 188.212C159.552 187.404 159.835 186.684 160.279 186.051C160.73 185.399 161.323 184.861 162.06 184.439C162.797 184.017 163.554 183.781 164.332 183.73C165.115 183.659 165.88 183.779 166.625 184.09C167.375 184.382 168.107 184.864 168.819 185.538C169.524 186.199 170.176 187.052 170.776 188.1C171.383 189.16 171.801 190.174 172.029 191.142C172.257 192.11 172.315 193.004 172.201 193.825C172.093 194.625 171.814 195.351 171.364 196.004C170.919 196.637 170.328 197.164 169.591 197.586ZM168.469 195.627C169.284 195.161 169.701 194.39 169.72 193.314C169.744 192.219 169.327 190.921 168.468 189.421C167.631 187.961 166.741 186.977 165.799 186.47C164.868 185.955 163.996 185.931 163.182 186.398C162.367 186.864 161.941 187.632 161.901 188.702C161.874 189.765 162.28 191.027 163.116 192.487C163.975 193.987 164.877 195.007 165.822 195.547C166.773 196.067 167.655 196.094 168.469 195.627Z" fill="#1B2240"/>
<path d="M181.218 189.599L171.49 178.693L173.525 176.878L181.869 180.425L184.935 181.882L184.985 181.838C184.435 181.31 183.839 180.754 183.197 180.169C182.545 179.572 181.947 178.968 181.401 178.357L177.177 173.62L179.028 171.969L188.756 182.876L186.722 184.691L178.363 181.127L175.311 179.686L175.261 179.731C175.831 180.281 176.432 180.843 177.064 181.417C177.686 181.98 178.27 182.567 178.815 183.179L183.069 187.948L181.218 189.599Z" fill="#1B2240"/>
<path d="M190.8 168.661L191.935 170.134L194.133 167.147L192.389 166.501C191.641 166.21 190.877 165.916 190.097 165.619C189.305 165.313 188.517 165.002 187.733 164.684L187.68 164.756C188.216 165.41 188.748 166.069 189.276 166.735C189.8 167.38 190.308 168.022 190.8 168.661ZM194.176 177.194L185.212 164.716L187.014 162.268L201.593 167.114L199.964 169.328L196.116 167.884L193.228 171.808L195.739 175.07L194.176 177.194Z" fill="#1B2240"/>
<path d="M205.931 159.372L192.624 153.329L193.687 150.989L205 156.127L207.836 149.88L209.83 150.786L205.931 159.372Z" fill="#1B2240"/>
<defs>
<linearGradient id="paint0_linear_1806_47607" x1="91.5" y1="83.8705" x2="222.5" y2="232.37" gradientUnits="userSpaceOnUse">
<stop stop-color="#F4D03F"/>
<stop stop-color="#F4D03F"/>
<stop offset="0.786804" stop-color="#F59140"/>
</linearGradient>
<linearGradient id="paint1_linear_1806_47607" x1="91.5" y1="83.8705" x2="222.5" y2="232.37" gradientUnits="userSpaceOnUse">
<stop stop-color="#F4D03F"/>
<stop stop-color="#F4D03F"/>
<stop offset="0.786804" stop-color="#F59140"/>
</linearGradient>
</defs>
</svg>
