<svg width="248" height="248" viewBox="0 0 248 248" fill="none" xmlns="http://www.w3.org/2000/svg">
<path d="M131.565 5.91784L223.224 58.8376C227.711 61.4278 230.474 66.2146 230.474 71.395V177.235C230.474 182.415 227.711 187.202 223.224 189.792L131.565 242.712C127.078 245.302 121.551 245.302 117.065 242.712L25.405 189.792C20.9187 187.202 18.155 182.415 18.155 177.235V71.395C18.155 66.2146 20.9187 61.4278 25.405 58.8376L117.065 5.91784C121.551 3.32767 127.078 3.32766 131.565 5.91784Z" fill="url(#paint0_linear)" stroke="#1B2240" stroke-width="3"/>
<path d="M48.3144 90.1618L49.6576 91.6406L51.7517 88.2514L49.8282 87.7118C49.0026 87.465 48.1593 87.2167 47.2981 86.9667C46.4233 86.7083 45.5528 86.4431 44.6864 86.1711L44.6359 86.2528C45.2668 86.9059 45.8935 87.5658 46.516 88.2325C47.1333 88.8773 47.7327 89.5204 48.3144 90.1618ZM52.6694 99.0028L41.991 86.4241L43.7067 83.6474L59.7339 87.5693L58.1822 90.0806L53.9376 88.8685L51.1875 93.3195L54.158 96.5936L52.6694 99.0028Z" fill="#1B2240"/>
<path d="M61.8835 85.3167L50.2758 74.7513L53.7492 70.9354C54.3307 70.2964 54.923 69.7646 55.526 69.3398C56.1397 68.9032 56.7663 68.6189 57.4057 68.4869C58.0451 68.3549 58.6978 68.3865 59.3639 68.5818C60.0182 68.7662 60.6825 69.1654 61.357 69.7793C61.9959 70.3608 62.4498 70.9794 62.7184 71.6351C62.9871 72.2907 63.0981 72.965 63.0514 73.6581C63.0036 74.3286 62.8089 75.006 62.4673 75.6903C62.1247 76.352 61.6679 76.9964 61.0971 77.6235L59.4978 79.3807L63.7575 83.2579L61.8835 85.3167ZM57.8471 77.8783L59.3011 76.2809C60.852 74.577 60.9234 73.0842 59.5153 71.8026C58.7817 71.1349 58.085 70.8901 57.4251 71.0684C56.7534 71.2359 56.0298 71.7456 55.2544 72.5975L53.8004 74.1949L57.8471 77.8783Z" fill="#1B2240"/>
<path d="M76.5908 71.9263C75.8633 72.4764 75.0872 72.8426 74.2623 73.025C73.4405 73.185 72.6052 73.1547 71.7563 72.934C70.9105 72.6909 70.0576 72.2526 69.1976 71.6192C68.3375 70.9857 67.5118 70.1457 66.7205 69.0992C65.9389 68.0654 65.3702 67.0612 65.0144 66.0866C64.6489 65.0992 64.4741 64.1783 64.49 63.3238C64.509 62.447 64.7122 61.6414 65.0998 60.9071C65.4904 60.1503 66.0495 59.4969 66.7769 58.9469C67.5044 58.3969 68.279 58.0418 69.1008 57.8818C69.9257 57.6994 70.7562 57.7234 71.5923 57.9537C72.4315 58.1617 73.2763 58.576 74.1268 59.1967C74.9675 59.8046 75.7788 60.6254 76.5604 61.6592C77.3517 62.7057 77.9349 63.729 78.31 64.7292C78.6851 65.7293 78.868 66.6742 78.8586 67.5639C78.8524 68.4311 78.654 69.2431 78.2633 69.9998C77.8758 70.7341 77.3183 71.3763 76.5908 71.9263ZM75.1289 69.9928C75.9329 69.3849 76.2719 68.5068 76.1458 67.3584C76.0228 66.1877 75.4017 64.8621 74.2823 63.3817C73.1919 61.9395 72.1098 61.0125 71.0362 60.6007C69.9754 60.1792 69.0429 60.2725 68.2389 60.8804C67.4349 61.4884 67.0847 62.3649 67.1883 63.5101C67.3048 64.6457 67.9082 65.9345 68.9986 67.3767C70.118 68.8572 71.2178 69.8209 72.2979 70.2679C73.3812 70.6924 74.3248 70.6008 75.1289 69.9928Z" fill="#1B2240"/>
<path d="M85.2831 65.9783L78.2807 51.9309L80.7509 50.6996L86.7039 62.6421L93.2981 59.355L94.3473 61.46L85.2831 65.9783Z" fill="#1B2240"/>
<path d="M98.9161 60.0609L94.6168 44.9652L97.2712 44.2092L100.926 57.0429L108.013 55.0247L108.657 57.2868L98.9161 60.0609Z" fill="#1B2240"/>
<path d="M117.733 56.6394C116.825 56.7237 115.972 56.626 115.175 56.3464C114.392 56.0494 113.698 55.5835 113.093 54.9487C112.502 54.2965 112.008 53.4746 111.611 52.4831C111.214 51.4915 110.954 50.3425 110.833 49.0361C110.714 47.7457 110.759 46.5925 110.97 45.5767C111.18 44.5449 111.517 43.6701 111.98 42.9522C112.458 42.2169 113.056 41.6393 113.772 41.2193C114.503 40.782 115.322 40.5212 116.23 40.437C117.138 40.3527 117.984 40.4591 118.766 40.7561C119.564 41.0357 120.257 41.4936 120.846 42.1299C121.45 42.7488 121.95 43.546 122.345 44.5217C122.74 45.4813 122.997 46.6064 123.116 47.8969C123.238 49.2033 123.194 50.3803 122.986 51.428C122.778 52.4757 122.436 53.3752 121.959 54.1264C121.497 54.8602 120.9 55.4458 120.169 55.8832C119.453 56.3031 118.641 56.5552 117.733 56.6394ZM117.509 54.2258C118.513 54.1327 119.263 53.5649 119.761 52.5225C120.274 51.4627 120.444 50.0087 120.273 48.1606C120.106 46.3604 119.674 45.0024 118.979 44.0867C118.299 43.1696 117.458 42.7575 116.454 42.8506C115.45 42.9437 114.691 43.5042 114.176 44.5322C113.676 45.5587 113.51 46.9721 113.677 48.7724C113.848 50.6205 114.275 52.019 114.958 52.968C115.655 53.8996 116.505 54.3189 117.509 54.2258Z" fill="#1B2240"/>
<path d="M147.959 60.0396C147.005 59.7679 146.16 59.3444 145.426 58.7692C144.707 58.1984 144.141 57.4967 143.73 56.6641C143.318 55.8315 143.073 54.8801 142.995 53.8098C142.933 52.7439 143.079 51.5878 143.434 50.3414C143.789 49.0949 144.274 48.0352 144.889 47.1622C145.519 46.2935 146.23 45.6061 147.023 45.0999C147.832 44.5982 148.702 44.2886 149.633 44.1714C150.58 44.0585 151.546 44.1423 152.531 44.4228C153.532 44.7076 154.321 45.1487 154.899 45.746C155.498 46.3323 155.952 46.9276 156.262 47.5317L154.312 48.7729C154.059 48.3181 153.75 47.914 153.384 47.5605C153.035 47.2113 152.529 46.9425 151.867 46.7541C151.267 46.5832 150.676 46.5562 150.094 46.6732C149.531 46.7791 148.997 47.018 148.492 47.3899C148.007 47.7507 147.568 48.2412 147.175 48.8613C146.782 49.4814 146.465 50.2146 146.224 51.061C145.733 52.7844 145.694 54.2372 146.106 55.4192C146.537 56.5903 147.43 57.3686 148.784 57.7543C149.184 57.8683 149.584 57.924 149.984 57.9214C150.389 57.9035 150.729 57.8175 151.006 57.6634L151.933 54.4089L149.325 53.666L149.949 51.4732L154.981 52.9063L153.088 59.554C152.455 59.9061 151.681 60.143 150.764 60.2647C149.863 60.3907 148.928 60.3157 147.959 60.0396Z" fill="#1B2240"/>
<path d="M156.245 62.7523L163.247 48.7049L167.929 51.039C168.66 51.403 169.304 51.8137 169.863 52.2709C170.422 52.7282 170.848 53.2357 171.142 53.7935C171.457 54.344 171.612 54.9485 171.606 55.6068C171.614 56.2722 171.421 56.9988 171.029 57.7863C170.493 58.8603 169.804 59.5981 168.96 59.9999C168.13 60.4087 167.222 60.5458 166.234 60.4111L166.662 67.9452L163.848 66.5426L163.582 59.5449L161.477 58.4956L158.736 63.9943L156.245 62.7523ZM162.462 56.5195L164.395 57.4832C165.369 57.9685 166.206 58.1357 166.907 57.9846C167.623 57.8406 168.18 57.3676 168.58 56.5657C168.987 55.7495 169.011 55.0554 168.653 54.4834C168.309 53.9186 167.65 53.3934 166.676 52.9081L164.743 51.9444L162.462 56.5195Z" fill="#1B2240"/>
<path d="M177.245 65.5079L175.647 66.7064L178.825 69.1093L179.543 67.2448C179.866 66.4461 180.192 65.6298 180.522 64.7958C180.861 63.9491 181.207 63.1073 181.559 62.2703L181.482 62.2124C180.773 62.7792 180.057 63.3412 179.335 63.8984C178.635 64.4525 177.939 64.989 177.245 65.5079ZM168.035 69.0144L181.56 59.563L184.163 61.5316L178.755 77.1202L176.401 75.3399L178.006 71.2277L173.832 68.0722L170.294 70.7224L168.035 69.0144Z" fill="#1B2240"/>
<path d="M180.796 79.4719L192.404 68.9065L195.877 72.7225C196.459 73.3614 196.933 74.001 197.299 74.6411C197.676 75.2931 197.9 75.9436 197.972 76.5926C198.043 77.2415 197.95 77.8884 197.694 78.5333C197.449 79.1673 196.989 79.7913 196.314 80.4052C195.676 80.9868 195.017 81.3806 194.339 81.5866C193.661 81.7925 192.979 81.8398 192.294 81.7283C191.631 81.6178 190.975 81.3604 190.325 80.9562C189.699 80.5529 189.1 80.0378 188.529 79.4107L186.93 77.6535L182.67 81.5307L180.796 79.4719ZM188.58 76.1511L190.034 77.7485C191.585 79.4524 193.065 79.6635 194.473 78.3819C195.206 77.7141 195.515 77.0434 195.4 76.3697C195.296 75.6853 194.857 74.9171 194.081 74.0652L192.627 72.4678L188.58 76.1511Z" fill="#1B2240"/>
<path d="M190.117 90.564L203.469 82.3137L204.933 84.6821L199.563 87.9999L202.389 92.5733L207.758 89.2555L209.222 91.6239L195.869 99.8742L194.406 97.5058L200.327 93.8474L197.501 89.274L191.58 92.9324L190.117 90.564Z" fill="#1B2240"/>
<path d="M60.1598 166.38L58.2516 166.979L60.4628 170.293L61.7583 168.775C62.3281 168.13 62.9068 167.47 63.4944 166.794C64.0953 166.109 64.7007 165.431 65.3106 164.759L65.2573 164.679C64.3988 164.978 63.5359 165.27 62.6685 165.556C61.8234 165.846 60.9871 166.12 60.1598 166.38ZM50.2881 166.632L66.2068 162.211L68.0184 164.926L57.7476 177.812L56.1091 175.357L58.9871 172.016L56.0832 167.664L51.8599 168.988L50.2881 166.632Z" fill="#1B2240"/>
<path d="M67.278 188.181C66.4599 187.439 65.8122 186.583 65.3352 185.611C64.8581 184.639 64.5774 183.618 64.4931 182.549L66.9822 182.245C67.0646 183.032 67.2711 183.802 67.6016 184.555C67.943 185.296 68.4219 185.946 69.0385 186.505C69.7144 187.117 70.349 187.454 70.9423 187.517C71.5356 187.579 72.0212 187.404 72.3992 186.991C72.6368 186.731 72.7837 186.476 72.84 186.224C72.9071 185.961 72.9112 185.684 72.8521 185.393C72.8049 185.113 72.7053 184.807 72.5535 184.475C72.4135 184.154 72.2553 183.806 72.0787 183.43L71.1274 181.305C70.9271 180.908 70.7597 180.486 70.6252 180.04C70.4907 179.595 70.4183 179.141 70.4079 178.678C70.3975 178.215 70.4724 177.754 70.6325 177.294C70.7925 176.835 71.0669 176.393 71.4557 175.968C71.8768 175.507 72.3664 175.173 72.9243 174.966C73.493 174.748 74.0902 174.652 74.7159 174.679C75.3416 174.706 75.9732 174.857 76.6105 175.132C77.2597 175.418 77.8807 175.83 78.4736 176.367C79.1851 177.011 79.7368 177.759 80.1287 178.611C80.5433 179.462 80.7886 180.331 80.8644 181.22L78.5985 181.564C78.488 180.903 78.2944 180.285 78.0176 179.71C77.7527 179.146 77.3238 178.596 76.7309 178.059C76.1736 177.554 75.615 177.264 75.0552 177.188C74.5072 177.124 74.0334 177.31 73.6339 177.747C73.4287 177.971 73.3039 178.214 73.2594 178.476C73.2258 178.726 73.2385 178.997 73.2976 179.288C73.3793 179.578 73.4956 179.877 73.6463 180.187C73.8089 180.507 73.9721 180.838 74.1358 181.181L75.0661 183.222C75.3041 183.696 75.4909 184.168 75.6264 184.636C75.7619 185.104 75.8289 185.564 75.8275 186.016C75.826 186.468 75.7334 186.913 75.5496 187.351C75.3885 187.788 75.1135 188.219 74.7248 188.644C74.2928 189.117 73.7871 189.468 73.2076 189.699C72.6399 189.94 72.0265 190.053 71.3673 190.039C70.719 190.013 70.0416 189.853 69.3352 189.558C68.6397 189.252 67.9539 188.793 67.278 188.181Z" fill="#1B2240"/>
<path d="M84.21 200.203C83.2361 199.683 82.3994 199.009 81.6999 198.183C81.0004 197.356 80.4794 196.434 80.137 195.417L82.4762 194.516C82.748 195.26 83.1358 195.957 83.6398 196.606C84.1514 197.242 84.7742 197.756 85.5082 198.148C86.3127 198.577 87.0102 198.75 87.6007 198.666C88.1911 198.583 88.6192 198.294 88.8849 197.801C89.0519 197.491 89.132 197.208 89.1254 196.95C89.1263 196.679 89.0627 196.409 88.9344 196.141C88.8203 195.881 88.6492 195.608 88.4211 195.323C88.2072 195.045 87.9687 194.746 87.7059 194.424L86.2656 192.594C85.9745 192.258 85.7095 191.889 85.4705 191.49C85.2314 191.09 85.0505 190.667 84.9276 190.221C84.8047 189.774 84.7648 189.308 84.808 188.824C84.8512 188.339 85.0094 187.843 85.2826 187.336C85.5787 186.787 85.9719 186.344 86.4624 186.007C86.9604 185.656 87.516 185.418 88.1292 185.292C88.7424 185.166 89.3915 185.158 90.0765 185.27C90.7756 185.389 91.478 185.637 92.1838 186.014C93.0307 186.466 93.7479 187.058 94.3356 187.788C94.9449 188.513 95.3947 189.297 95.685 190.141L93.572 191.026C93.3036 190.411 92.9652 189.859 92.5568 189.369C92.1625 188.886 91.6125 188.457 90.9068 188.08C90.2434 187.726 89.6311 187.58 89.0699 187.644C88.5229 187.714 88.109 188.01 87.8281 188.531C87.6839 188.799 87.6222 189.065 87.6429 189.33C87.6713 189.581 87.7496 189.841 87.8778 190.109C88.0277 190.37 88.2135 190.632 88.4351 190.896C88.6707 191.167 88.9097 191.448 89.1519 191.741L90.5515 193.495C90.8979 193.897 91.1939 194.309 91.4395 194.73C91.685 195.152 91.8622 195.582 91.9709 196.021C92.0797 196.46 92.0984 196.914 92.027 197.384C91.9773 197.847 91.8159 198.332 91.5426 198.839C91.239 199.402 90.8343 199.867 90.3287 200.231C89.8372 200.604 89.2702 200.863 88.6277 201.01C87.9928 201.143 87.297 201.152 86.5404 201.039C85.7913 200.911 85.0145 200.632 84.21 200.203Z" fill="#1B2240"/>
<path d="M103.538 207.742C102.653 207.521 101.881 207.146 101.223 206.619C100.583 206.08 100.084 205.411 99.7243 204.612C99.3844 203.801 99.1923 202.862 99.148 201.796C99.1038 200.729 99.2422 199.56 99.5633 198.288C99.8806 197.031 100.308 195.959 100.846 195.071C101.387 194.167 101.997 193.453 102.673 192.93C103.37 192.395 104.125 192.048 104.941 191.889C105.776 191.719 106.636 191.744 107.521 191.965C108.406 192.186 109.168 192.567 109.807 193.106C110.466 193.633 110.968 194.295 111.311 195.09C111.675 195.873 111.88 196.791 111.929 197.842C111.981 198.877 111.848 200.023 111.531 201.28C111.21 202.552 110.776 203.648 110.231 204.567C109.685 205.486 109.062 206.221 108.362 206.771C107.682 207.31 106.924 207.665 106.089 207.836C105.273 207.995 104.423 207.963 103.538 207.742ZM104.131 205.392C105.109 205.636 106.007 205.35 106.824 204.531C107.66 203.701 108.306 202.387 108.76 200.587C109.203 198.834 109.249 197.411 108.898 196.317C108.562 195.227 107.906 194.56 106.928 194.315C105.95 194.071 105.046 194.348 104.218 195.147C103.404 195.95 102.777 197.227 102.334 198.98C101.88 200.78 101.816 202.24 102.144 203.361C102.491 204.47 103.153 205.147 104.131 205.392Z" fill="#1B2240"/>
<path d="M125.48 210.368C124.504 210.368 123.584 210.192 122.72 209.84C121.872 209.488 121.128 208.968 120.488 208.28C119.848 207.592 119.344 206.744 118.976 205.736C118.608 204.728 118.424 203.576 118.424 202.28C118.424 201 118.608 199.856 118.976 198.848C119.344 197.824 119.848 196.96 120.488 196.256C121.144 195.552 121.912 195.016 122.792 194.648C123.672 194.28 124.632 194.096 125.672 194.096C126.648 194.096 127.512 194.296 128.264 194.696C129.032 195.096 129.664 195.552 130.16 196.064L128.624 197.792C128.224 197.408 127.784 197.104 127.304 196.88C126.824 196.64 126.28 196.52 125.672 196.52C125.016 196.52 124.416 196.656 123.872 196.928C123.344 197.184 122.888 197.56 122.504 198.056C122.12 198.536 121.816 199.128 121.592 199.832C121.384 200.536 121.28 201.328 121.28 202.208C121.28 203.104 121.384 203.912 121.592 204.632C121.816 205.336 122.12 205.936 122.504 206.432C122.888 206.912 123.352 207.288 123.896 207.56C124.456 207.816 125.072 207.944 125.744 207.944C126.384 207.944 126.96 207.808 127.472 207.536C128 207.264 128.488 206.88 128.936 206.384L130.472 208.088C129.848 208.824 129.12 209.392 128.288 209.792C127.472 210.176 126.536 210.368 125.48 210.368Z" fill="#1B2240"/>
<path d="M139.753 208.872L139.178 206.592L142.856 205.672L140.166 195.014L136.487 195.934L135.911 193.654L145.97 191.139L146.545 193.419L142.867 194.339L145.557 204.997L149.236 204.077L149.812 206.357L139.753 208.872Z" fill="#1B2240"/>
<path d="M158.877 193.565L159.301 195.515L162.816 193.639L161.418 192.209C160.825 191.582 160.218 190.945 159.597 190.297C158.968 189.636 158.345 188.97 157.73 188.301L157.646 188.346C157.866 189.226 158.078 190.11 158.284 190.998C158.496 191.864 158.694 192.72 158.877 193.565ZM158.224 203.381L155.266 187.168L158.145 185.631L170.08 197.052L167.476 198.442L164.402 195.268L159.787 197.732L160.722 202.048L158.224 203.381Z" fill="#1B2240"/>
<path d="M180.087 189.273L171.081 179.426L167.417 182.745L165.829 181.01L175.221 172.502L176.808 174.238L173.144 177.557L182.15 187.404L180.087 189.273Z" fill="#1B2240"/>
<path d="M192.035 176.639L178.94 167.985L184.521 159.62L186.483 160.916L182.447 166.966L185.791 169.175L189.214 164.045L191.177 165.341L187.753 170.472L191.618 173.026L195.787 166.777L197.749 168.074L192.035 176.639Z" fill="#1B2240"/>
<path d="M107.5 125.352V137.5H140.5V124.772C140.5 111.35 134.592 98.6121 124.355 89.9423C113.694 98.603 107.5 111.609 107.5 125.352Z" stroke="#1B2240" stroke-width="3"/>
<rect x="116.5" y="137.5" width="15" height="6" rx="3" stroke="#1B2240" stroke-width="3"/>
<path d="M110.212 149.5H137.788C138.384 149.5 138.923 149.853 139.162 150.399L141.787 156.399C142.221 157.39 141.495 158.5 140.413 158.5H107.587C106.505 158.5 105.779 157.39 106.213 156.399L108.838 150.399C109.077 149.853 109.616 149.5 110.212 149.5Z" stroke="#1B2240" stroke-width="3"/>
<path d="M117.081 149.5L119.081 143.5H128.919L130.919 149.5H117.081Z" stroke="#1B2240" stroke-width="3"/>
<path d="M124 128.5C123.53 128.5 123.11 128.208 122.946 127.768C122.555 126.719 122.257 125.857 122.018 125.165C121.528 123.749 121.259 122.97 120.894 122.605C120.53 122.241 119.75 121.972 118.335 121.482C117.643 121.243 116.781 120.945 115.732 120.554C115.292 120.39 115 119.97 115 119.5C115 119.03 115.292 118.61 115.732 118.446C116.781 118.055 117.642 117.757 118.335 117.518C119.75 117.028 120.53 116.759 120.894 116.395C121.259 116.03 121.528 115.251 122.018 113.835C122.257 113.143 122.555 112.281 122.946 111.232C123.11 110.792 123.53 110.5 124 110.5C124.47 110.5 124.89 110.792 125.054 111.232C125.445 112.281 125.743 113.143 125.982 113.835C126.472 115.251 126.741 116.03 127.105 116.394C127.47 116.759 128.249 117.028 129.665 117.518C130.357 117.757 131.219 118.055 132.268 118.446C132.708 118.61 133 119.03 133 119.5C133 119.97 132.708 120.39 132.268 120.554C131.219 120.945 130.357 121.243 129.665 121.482C128.249 121.972 127.47 122.241 127.106 122.605C126.741 122.97 126.472 123.749 125.982 125.165C125.743 125.857 125.445 126.718 125.054 127.768C124.89 128.208 124.469 128.5 124 128.5ZM119.484 119.5C122.552 120.576 122.923 120.948 124 124.016C125.076 120.948 125.448 120.576 128.515 119.5C125.447 118.424 125.076 118.052 124 114.984C122.924 118.052 122.552 118.424 119.484 119.5Z" fill="#1B2240"/>
<path d="M109 129.25H97.75C96.5074 129.25 95.4925 128.24 95.5537 126.999C96.0498 116.942 100.004 111.25 108.25 111.25" stroke="#1B2240" stroke-width="3"/>
<path d="M139 129.25H149.5C151.157 129.25 152.515 127.904 152.402 126.251C151.749 116.66 147.789 111.25 139.75 111.25" stroke="#1B2240" stroke-width="3"/>
<path d="M115.75 100L116.404 100.245C121.769 102.257 127.696 102.17 133 100V100" stroke="#1B2240" stroke-width="3"/>
<defs>
<linearGradient id="paint0_linear" x1="91.5" y1="83.5" x2="222.5" y2="232" gradientUnits="userSpaceOnUse">
<stop stop-color="#F4D03F"/>
<stop stop-color="#F4D03F"/>
<stop offset="0.786804" stop-color="#F59140"/>
</linearGradient>
</defs>
</svg>
